<?xml version="1.0" encoding="UTF-8"?> <svg xmlns="http://www.w3.org/2000/svg" width="30" height="30" viewBox="0 0 30 30" fill="none"> <g clip-path="url(#clip0_173_130)"> <path d="M30 12.6421C29.9997 12.4971 29.9221 12.3632 29.7965 12.291L27.7356 11.1073L29.7973 9.91729C29.9229 9.84469 30.0003 9.71063 30 9.56561C29.9997 9.42059 29.9221 9.28676 29.7965 9.21458C26.2833 7.19772 22.7703 5.18005 19.2575 3.16185C19.1321 3.08978 18.9783 3.08995 18.8529 3.16226L0.202969 13.93C0.0773445 14.0024 8.2935e-07 14.1366 0.000293798 14.2815C0.000586767 14.4265 0.0778719 14.5603 0.20379 14.6326C0.890625 15.0273 1.57764 15.4215 2.26453 15.8162L0.202677 17.0064C0.0770516 17.0788 -0.000292139 17.213 8.29354e-07 17.3579C0.000293798 17.5029 0.0778719 17.6368 0.203497 17.709L2.26436 18.8926L0.202677 20.0827C0.0770516 20.1553 -0.000292139 20.2894 8.29354e-07 20.4343C0.000293798 20.5793 0.0778719 20.7132 0.203497 20.7854L10.7425 26.8382C10.805 26.8741 10.8747 26.892 10.9444 26.892C11.0143 26.892 11.0842 26.8739 11.147 26.8376L29.7973 16.07C29.9229 15.9976 30.0002 15.8634 29.9999 15.7184C29.9996 15.5735 29.9221 15.4396 29.7964 15.3674L27.7356 14.1839L29.7973 12.9936C29.9229 12.9211 30.0003 12.787 30 12.6421V12.6421ZM19.0561 3.98122C22.2978 5.84368 25.5397 7.70561 28.7819 9.56702L21.7622 13.6188C21.5389 13.4923 21.1292 13.2581 20.5965 12.9526L24.5872 10.6499C24.683 10.5945 24.7521 10.5024 24.7782 10.3948C24.8046 10.2874 24.7856 10.1738 24.726 10.0805C24.6402 9.94612 24.5143 9.67887 24.6362 9.39897C24.7185 9.2096 24.6452 8.98852 24.4662 8.88575L20.1519 6.40618C20.0474 6.34624 19.9215 6.33569 19.8083 6.37794C19.254 6.58489 18.4976 6.55214 17.8818 6.29491C17.7657 6.24663 17.6324 6.25454 17.5229 6.318L13.2999 8.75649C13.1444 8.66696 12.9952 8.58106 12.8575 8.50178L12.04 8.03116L19.0561 3.98122ZM23.858 10.1345L19.783 12.4859C18.1225 11.5325 15.8352 10.2161 14.1121 9.22413L17.7613 7.11669C18.4594 7.36067 19.2488 7.39132 19.905 7.19954L23.7906 9.43272C23.7563 9.66346 23.7793 9.90235 23.858 10.1345ZM8.23002 10.2305C8.62166 10.4555 9.01336 10.6803 9.40506 10.9053L5.42121 13.2067C5.32541 13.262 5.25627 13.3541 5.23014 13.4616C5.20377 13.5692 5.22275 13.6827 5.2824 13.776C5.36818 13.9103 5.4941 14.1776 5.3724 14.4572C5.29008 14.6466 5.36344 14.8676 5.54238 14.9704L9.85535 17.4461C9.95959 17.5062 10.086 17.5166 10.199 17.4744C10.7527 17.2676 11.5092 17.3 12.1257 17.557C12.1756 17.578 12.2287 17.5883 12.2817 17.5883C12.3519 17.5883 12.4221 17.57 12.4844 17.5339L13.149 17.1501C14.3345 16.4654 15.5198 15.7809 16.7055 15.097L17.957 15.8153L10.9437 19.8658C7.70156 18.0046 4.4591 16.1427 1.2177 14.2801L8.23002 10.2305ZM6.15047 13.7218L10.2179 11.3721C11.9334 12.3573 13.6491 13.3426 15.3647 14.3274L15.8925 14.6303C14.8427 15.236 13.7931 15.8419 12.7436 16.448L12.2461 16.7354C11.5475 16.4914 10.7586 16.4614 10.1021 16.6529L6.21808 14.4234C6.25213 14.1928 6.22916 13.9539 6.15047 13.7218V13.7218ZM3.07734 16.283C5.63226 17.7507 8.18713 19.2183 10.7425 20.6852C10.805 20.7211 10.8747 20.739 10.9444 20.739C11.0143 20.739 11.0845 20.7209 11.147 20.6846L18.3652 16.5158L18.3704 18.6548L10.9438 22.9423L1.21781 17.3565L3.07734 16.283ZM10.9438 26.0188L1.21781 20.433L3.07752 19.3596L10.7425 23.7618C10.805 23.7977 10.8747 23.8156 10.9444 23.8156C11.0143 23.8156 11.0842 23.7975 11.147 23.7612L18.3726 19.5896L18.3779 21.727L10.9438 26.0188ZM19.1876 21.2595L19.1744 15.813C19.1742 15.6681 19.0965 15.5344 18.9709 15.4624C18.9709 15.4624 11.2835 11.0498 9.04166 9.76178L11.2286 8.49962C11.2286 8.49962 20.6862 13.9448 21.3613 14.313L21.3727 19.9977L19.1876 21.2595ZM28.7822 15.7199L22.1826 19.5303L22.1783 17.3924L26.9238 14.6527L28.7822 15.7199ZM22.1764 16.4573L22.1721 14.3186L26.9235 11.576L28.7822 12.6434L22.1764 16.4573ZM9.76482 15.0649C9.65291 14.871 9.71918 14.6231 9.91318 14.5112L11.6892 13.4857C11.8827 13.3736 12.1311 13.4399 12.2429 13.6341C12.3548 13.828 12.2886 14.0759 12.0946 14.1878L10.3185 15.2133C10.2547 15.2503 10.185 15.2677 10.1161 15.2677C9.97623 15.2676 9.83976 15.1951 9.76482 15.0649V15.0649ZM20.4692 8.88405C20.5812 9.07794 20.5149 9.3259 20.3209 9.43776L18.7589 10.3396C18.695 10.3766 18.6254 10.394 18.5565 10.394C18.4166 10.394 18.2801 10.3214 18.2052 10.1913C18.0933 9.99745 18.1595 9.74948 18.3535 9.63762L19.9155 8.73575C20.1092 8.62372 20.3573 8.68981 20.4692 8.88405Z" fill="#FF37FF"></path> </g> <defs> <clipPath id="clip0_173_130"> <rect width="30" height="30" fill="white"></rect> </clipPath> </defs> </svg> 